<svg width="168" height="64" viewBox="0 0 168 64" fill="none" xmlns="http://www.w3.org/2000/svg">
<path d="M56.1009 44V20.7273H65.2827C67.0402 20.7273 68.5402 21.0417 69.7827 21.6705C71.0327 22.2917 71.9834 23.1742 72.6349 24.3182C73.294 25.4545 73.6236 26.7917 73.6236 28.3295C73.6236 29.875 73.2902 31.2045 72.6236 32.3182C71.9569 33.4242 70.991 34.2727 69.7259 34.8636C68.4683 35.4545 66.9455 35.75 65.1577 35.75H59.0099V31.7955H64.3622C65.3016 31.7955 66.0819 31.6667 66.7031 31.4091C67.3243 31.1515 67.7865 30.7652 68.0895 30.25C68.4001 29.7348 68.5554 29.0947 68.5554 28.3295C68.5554 27.5568 68.4001 26.9053 68.0895 26.375C67.7865 25.8447 67.3205 25.4432 66.6918 25.1705C66.0705 24.8902 65.2865 24.75 64.3395 24.75H61.0213V44H56.1009ZM68.669 33.4091L74.4531 44H69.0213L63.3622 33.4091H68.669ZM81.9872 44.3295C80.8736 44.3295 79.8812 44.1364 79.0099 43.75C78.1387 43.3561 77.4493 42.7765 76.9418 42.0114C76.4418 41.2386 76.1918 40.2765 76.1918 39.125C76.1918 38.1553 76.3698 37.3409 76.7259 36.6818C77.0819 36.0227 77.5668 35.4924 78.1804 35.0909C78.794 34.6894 79.491 34.3864 80.2713 34.1818C81.0592 33.9773 81.8849 33.8333 82.7486 33.75C83.7637 33.6439 84.5819 33.5455 85.2031 33.4545C85.8243 33.3561 86.2751 33.2121 86.5554 33.0227C86.8357 32.8333 86.9759 32.553 86.9759 32.1818V32.1136C86.9759 31.3939 86.7486 30.8371 86.294 30.4432C85.8471 30.0492 85.2107 29.8523 84.3849 29.8523C83.5137 29.8523 82.8205 30.0455 82.3054 30.4318C81.7902 30.8106 81.4493 31.2879 81.2827 31.8636L76.8054 31.5C77.0327 30.4394 77.4796 29.5227 78.1463 28.75C78.813 27.9697 79.6728 27.3712 80.7259 26.9545C81.7865 26.5303 83.0137 26.3182 84.4077 26.3182C85.3774 26.3182 86.3054 26.4318 87.1918 26.6591C88.0857 26.8864 88.8774 27.2386 89.5668 27.7159C90.2637 28.1932 90.813 28.8068 91.2145 29.5568C91.616 30.2992 91.8168 31.1894 91.8168 32.2273V44H87.2259V41.5795H87.0895C86.8092 42.125 86.4342 42.6061 85.9645 43.0227C85.4948 43.4318 84.9304 43.7538 84.2713 43.9886C83.6122 44.2159 82.8509 44.3295 81.9872 44.3295ZM83.3736 40.9886C84.0857 40.9886 84.7145 40.8485 85.2599 40.5682C85.8054 40.2803 86.2334 39.8939 86.544 39.4091C86.8546 38.9242 87.0099 38.375 87.0099 37.7614V35.9091C86.8584 36.0076 86.6501 36.0985 86.3849 36.1818C86.1274 36.2576 85.8357 36.3295 85.5099 36.3977C85.1842 36.4583 84.8584 36.5152 84.5327 36.5682C84.2069 36.6136 83.9115 36.6553 83.6463 36.6932C83.0781 36.7765 82.5819 36.9091 82.1577 37.0909C81.7334 37.2727 81.4039 37.5189 81.169 37.8295C80.9342 38.1326 80.8168 38.5114 80.8168 38.9659C80.8168 39.625 81.0554 40.1288 81.5327 40.4773C82.0175 40.8182 82.6312 40.9886 83.3736 40.9886ZM95.6634 44V20.7273H100.504V29.4773H100.652C100.864 29.0076 101.171 28.5303 101.572 28.0455C101.982 27.553 102.512 27.1439 103.163 26.8182C103.822 26.4848 104.641 26.3182 105.618 26.3182C106.891 26.3182 108.065 26.6515 109.141 27.3182C110.216 27.9773 111.076 28.9735 111.72 30.3068C112.364 31.6326 112.686 33.2955 112.686 35.2955C112.686 37.2424 112.372 38.8864 111.743 40.2273C111.122 41.5606 110.273 42.572 109.197 43.2614C108.129 43.9432 106.932 44.2841 105.607 44.2841C104.667 44.2841 103.868 44.1288 103.209 43.8182C102.557 43.5076 102.023 43.1174 101.607 42.6477C101.19 42.1705 100.872 41.6894 100.652 41.2045H100.436V44H95.6634ZM100.402 35.2727C100.402 36.3106 100.546 37.2159 100.834 37.9886C101.122 38.7614 101.538 39.3636 102.084 39.7955C102.629 40.2197 103.292 40.4318 104.072 40.4318C104.86 40.4318 105.527 40.2159 106.072 39.7841C106.618 39.3447 107.031 38.7386 107.311 37.9659C107.599 37.1856 107.743 36.2879 107.743 35.2727C107.743 34.2652 107.603 33.3788 107.322 32.6136C107.042 31.8485 106.629 31.25 106.084 30.8182C105.538 30.3864 104.868 30.1705 104.072 30.1705C103.285 30.1705 102.618 30.3788 102.072 30.7955C101.535 31.2121 101.122 31.803 100.834 32.5682C100.546 33.3333 100.402 34.2348 100.402 35.2727ZM116.007 44V20.7273H120.848V29.4773H120.996C121.208 29.0076 121.515 28.5303 121.916 28.0455C122.325 27.553 122.856 27.1439 123.507 26.8182C124.166 26.4848 124.984 26.3182 125.962 26.3182C127.234 26.3182 128.409 26.6515 129.484 27.3182C130.56 27.9773 131.42 28.9735 132.064 30.3068C132.708 31.6326 133.03 33.2955 133.03 35.2955C133.03 37.2424 132.715 38.8864 132.087 40.2273C131.465 41.5606 130.617 42.572 129.541 43.2614C128.473 43.9432 127.276 44.2841 125.95 44.2841C125.011 44.2841 124.212 44.1288 123.553 43.8182C122.901 43.5076 122.367 43.1174 121.95 42.6477C121.534 42.1705 121.215 41.6894 120.996 41.2045H120.78V44H116.007ZM120.746 35.2727C120.746 36.3106 120.89 37.2159 121.178 37.9886C121.465 38.7614 121.882 39.3636 122.428 39.7955C122.973 40.2197 123.636 40.4318 124.416 40.4318C125.204 40.4318 125.871 40.2159 126.416 39.7841C126.962 39.3447 127.375 38.7386 127.655 37.9659C127.943 37.1856 128.087 36.2879 128.087 35.2727C128.087 34.2652 127.946 33.3788 127.666 32.6136C127.386 31.8485 126.973 31.25 126.428 30.8182C125.882 30.3864 125.212 30.1705 124.416 30.1705C123.628 30.1705 122.962 30.3788 122.416 30.7955C121.878 31.2121 121.465 31.803 121.178 32.5682C120.89 33.3333 120.746 34.2348 120.746 35.2727ZM136.26 44V26.5455H141.101V44H136.26ZM138.692 24.2955C137.972 24.2955 137.355 24.0568 136.839 23.5795C136.332 23.0947 136.078 22.5152 136.078 21.8409C136.078 21.1742 136.332 20.6023 136.839 20.125C137.355 19.6402 137.972 19.3977 138.692 19.3977C139.411 19.3977 140.025 19.6402 140.533 20.125C141.048 20.6023 141.305 21.1742 141.305 21.8409C141.305 22.5152 141.048 23.0947 140.533 23.5795C140.025 24.0568 139.411 24.2955 138.692 24.2955ZM154.263 26.5455V30.1818H143.751V26.5455H154.263ZM146.138 22.3636H150.979V38.6364C150.979 39.0833 151.047 39.4318 151.183 39.6818C151.32 39.9242 151.509 40.0947 151.751 40.1932C152.001 40.2917 152.289 40.3409 152.615 40.3409C152.842 40.3409 153.07 40.322 153.297 40.2841C153.524 40.2386 153.698 40.2045 153.82 40.1818L154.581 43.7841C154.339 43.8598 153.998 43.947 153.558 44.0455C153.119 44.1515 152.585 44.2159 151.956 44.2386C150.789 44.2841 149.767 44.1288 148.888 43.7727C148.017 43.4167 147.339 42.8636 146.854 42.1136C146.369 41.3636 146.13 40.4167 146.138 39.2727V22.3636ZM166.7 26.5455V30.1818H156.189V26.5455H166.7ZM158.575 22.3636H163.416V38.6364C163.416 39.0833 163.484 39.4318 163.621 39.6818C163.757 39.9242 163.946 40.0947 164.189 40.1932C164.439 40.2917 164.727 40.3409 165.053 40.3409C165.28 40.3409 165.507 40.322 165.734 40.2841C165.962 40.2386 166.136 40.2045 166.257 40.1818L167.018 43.7841C166.776 43.8598 166.435 43.947 165.996 44.0455C165.556 44.1515 165.022 44.2159 164.393 44.2386C163.227 44.2841 162.204 44.1288 161.325 43.7727C160.454 43.4167 159.776 42.8636 159.291 42.1136C158.806 41.3636 158.568 40.4167 158.575 39.2727V22.3636Z" fill="url(#paint0_linear_366_1025)"/>
<path d="M39.2802 26.2974C37.4652 25.6985 34.9706 25.1974 32.203 24.8724C32.9275 21.4398 33.1372 18.36 32.8257 15.6735C32.4204 12.1785 31.23 10.2719 30.5569 9.44654C30.3253 9.16322 29.991 8.98316 29.627 8.94574C29.263 8.90831 28.899 9.01658 28.6146 9.24685C26.9639 10.5892 25.7646 12.5675 25.0496 15.1268C24.4887 17.1345 24.2227 19.5063 24.2589 22.1768C24.2695 22.9586 24.3057 23.7172 24.3571 24.4393C23.7332 24.4114 23.1081 24.4182 22.4849 24.4596C22.7809 21.6397 22.6359 18.4596 21.096 16.3118C19.8719 14.6045 17.9554 13.9024 15.8373 14.386C12.3191 15.1889 9.31231 18.888 8.52575 23.3814C8.49754 23.543 8.50425 23.7087 8.54545 23.8674C8.58665 24.0262 8.66137 24.1742 8.76459 24.3016C8.8678 24.4291 8.99712 24.5329 9.14383 24.6062C9.29054 24.6794 9.45124 24.7204 9.61512 24.7264C10.6361 24.7633 12.6526 24.7472 14.6884 24.2303C14.9201 24.1715 15.1432 24.1062 15.3623 24.0381C15.3586 24.3205 15.3682 24.6051 15.3884 24.8889C12.7757 25.2284 10.3926 25.7404 8.63028 26.3437C6.36097 27.1206 5.25781 27.982 5.25781 28.9774C5.25781 30.3541 7.19844 31.47 11.0267 32.2938C11.1222 32.3143 11.2187 32.3345 11.3157 32.3544C11.2021 35.2419 11.0601 38.2868 10.922 41.2379C10.7763 44.3546 10.6257 47.5774 10.509 50.6103C10.491 51.0831 10.6207 51.5499 10.8801 51.9456C11.1394 52.3414 11.5157 52.6465 11.9564 52.8187C15.7522 54.3035 19.7924 55.0646 23.8683 55.0627C23.9626 55.0627 24.0574 55.0627 24.1519 55.0614C28.1355 55.0291 32.0796 54.2687 35.7897 52.8177C36.2298 52.6455 36.6054 52.3407 36.8645 51.9455C37.1235 51.5503 37.2532 51.0843 37.2357 50.6121L36.5534 32.3813C36.6952 32.3525 36.8358 32.3235 36.9741 32.2938C40.802 31.47 42.743 30.3541 42.743 28.9774C42.7428 27.9429 41.6101 27.0662 39.2802 26.2974ZM29.3239 10.1198C29.3769 10.0771 29.4446 10.0572 29.5122 10.0643C29.5799 10.0715 29.6419 10.1051 29.6848 10.1579C30.763 11.4798 33.9252 16.7759 29.7251 29.7346C28.6406 29.8179 27.4681 29.8779 26.2475 29.9127C25.7247 27.3963 23.4758 14.8758 29.3239 10.1198ZM22.3404 25.5964C23.0432 25.5407 23.749 25.5327 24.4528 25.5724C24.4751 25.7979 24.4984 26.0181 24.5227 26.2331C23.7609 26.1922 22.9973 26.197 22.2361 26.2477C22.2726 26.0347 22.3074 25.8176 22.3404 25.5964ZM24.6665 27.3723C24.8209 28.4815 24.9865 29.3706 25.1021 29.937C24.6661 29.9433 24.2267 29.9467 23.7837 29.9472C22.9728 29.9472 22.1712 29.9358 21.3882 29.9143C21.5577 29.3369 21.7971 28.4537 22.0192 27.3902C22.6121 27.3471 23.7303 27.2889 24.6665 27.3723ZM9.65544 23.6021C9.65218 23.6022 9.64896 23.6014 9.64607 23.5999C9.64318 23.5984 9.6407 23.5962 9.63884 23.5935C9.63663 23.5911 9.63502 23.5882 9.63416 23.5851C9.6333 23.5819 9.6332 23.5786 9.63387 23.5754C10.4632 18.8379 13.5604 16.0594 16.0872 15.4827C17.766 15.0996 19.2202 15.6267 20.1813 16.9672C21.7062 19.0938 21.6135 22.5679 21.2674 25.1079C21.0405 26.7206 20.6918 28.3139 20.2242 29.874C19.3665 29.8381 18.5408 29.7892 17.7611 29.7281C17.3879 28.8176 16.3332 25.9991 16.5048 23.6171C18.1295 22.9094 19.3119 21.8839 20.0298 20.5539C20.0649 20.4888 20.0868 20.4176 20.0944 20.3441C20.1019 20.2706 20.0949 20.1964 20.0738 20.1256C20.0526 20.0548 20.0177 19.9889 19.9711 19.9316C19.9245 19.8743 19.867 19.8268 19.802 19.7917C19.737 19.7566 19.6657 19.7346 19.5922 19.7271C19.5187 19.7196 19.4445 19.7266 19.3737 19.7477C19.3029 19.7689 19.237 19.8038 19.1797 19.8504C19.1224 19.897 19.0749 19.9545 19.0398 20.0195C17.1146 23.5869 11.3702 23.6631 9.65544 23.6021ZM35.3804 51.7696C27.9809 54.66 19.7646 54.6603 12.3648 51.7705C12.1419 51.6834 11.9517 51.529 11.8205 51.3289C11.6894 51.1287 11.6238 50.8927 11.6329 50.6535C11.7493 47.6254 11.8999 44.4048 12.0454 41.2905C12.1808 38.3945 12.32 35.4089 12.4327 32.5672C15.698 33.1405 19.7398 33.4523 23.9997 33.4523C28.2025 33.4523 32.1928 33.1487 35.4347 32.5898L36.1108 50.6541C36.1199 50.8928 36.0545 51.1284 35.9237 51.3283C35.7929 51.5281 35.6028 51.6824 35.3804 51.7696ZM36.7372 31.1939C33.3411 31.9252 28.8177 32.3273 24.0003 32.3273C19.1829 32.3273 14.6595 31.9252 11.2634 31.1939C6.43831 30.1555 6.38281 29.025 6.38281 28.9774C6.38281 28.7439 6.92872 28.1149 8.99459 27.4081C10.6853 26.8293 12.9859 26.3362 15.5201 26.0064C15.7304 27.2388 16.0606 28.4477 16.506 29.6158C16.2428 29.5887 15.9857 29.5604 15.7378 29.5302C13.873 29.3036 12.942 29.0546 12.4865 28.8827C12.9785 28.7282 13.9865 28.4996 16.0365 28.2403C15.9343 27.8993 15.8346 27.5304 15.7439 27.1434C14.5564 27.296 13.6274 27.4487 12.919 27.608C11.7658 27.8672 10.998 28.1756 10.998 28.8383C10.998 29.4528 11.4907 30.0889 15.0644 30.5778C17.3976 30.897 20.4942 31.0728 23.7837 31.0728C27.0733 31.0728 30.17 30.897 32.5032 30.5778C36.0769 30.0889 36.5696 29.4528 36.5696 28.8383C36.5696 28.1244 35.655 27.7893 34.6664 27.5334C33.6904 27.2965 32.7012 27.1181 31.7039 26.999C31.6093 27.3609 31.5093 27.7261 31.4039 28.0948C33.3563 28.3365 34.5734 28.6359 35.1483 28.8569C34.7195 29.0292 33.7912 29.2923 31.8301 29.5305C31.5441 29.5653 31.2471 29.5979 30.9408 29.6286C31.3369 28.373 31.675 27.1558 31.9552 25.9769C38.7752 26.7589 41.6182 28.3047 41.6182 28.9781C41.6178 29.025 41.5623 30.1555 36.7372 31.1939Z" fill="url(#paint1_linear_366_1025)"/>
<path d="M13.7684 46.6391C13.6194 46.6332 13.4741 46.6866 13.3644 46.7877C13.2547 46.8888 13.1897 47.0293 13.1834 47.1783L13.145 48.1204C13.142 48.1942 13.1535 48.2679 13.179 48.3372C13.2045 48.4066 13.2433 48.4702 13.2934 48.5245C13.3435 48.5789 13.4037 48.6228 13.4708 48.6538C13.5378 48.6848 13.6103 48.7024 13.6842 48.7054H13.7074C13.8525 48.7053 13.992 48.6491 14.0967 48.5485C14.2014 48.448 14.2631 48.3109 14.2691 48.1658L14.3075 47.2237C14.3135 47.0747 14.2601 46.9295 14.159 46.8198C14.0579 46.7102 13.9174 46.6452 13.7684 46.6391Z" fill="url(#paint2_linear_366_1025)"/>
<path d="M14.2527 36.1324C14.1789 36.1291 14.1052 36.1403 14.0357 36.1654C13.9663 36.1906 13.9025 36.2292 13.8479 36.279C13.7934 36.3288 13.7492 36.3888 13.7178 36.4557C13.6865 36.5226 13.6686 36.5951 13.6653 36.6689L13.3131 44.4235C13.3097 44.4973 13.3209 44.571 13.3461 44.6405C13.3712 44.7099 13.4098 44.7738 13.4596 44.8283C13.5094 44.8828 13.5695 44.9271 13.6364 44.9584C13.7033 44.9897 13.7757 45.0076 13.8495 45.0109C13.8582 45.0109 13.8669 45.0115 13.8755 45.0115C14.0202 45.0114 14.1593 44.9555 14.2638 44.8555C14.3684 44.7555 14.4304 44.619 14.437 44.4745L14.7892 36.7199C14.7925 36.6461 14.7813 36.5724 14.7562 36.5029C14.731 36.4335 14.6925 36.3696 14.6427 36.3151C14.5928 36.2605 14.5328 36.2163 14.4659 36.185C14.399 36.1536 14.3265 36.1358 14.2527 36.1324Z" fill="url(#paint3_linear_366_1025)"/>
<path d="M36.5 12.0002H38.25M40 12.0002H38.25M38.25 12.0002V10.2271M38.25 12.0002V13.7475" stroke="white"/>
<path d="M4 23.7731H5.75M7.5 23.7731H5.75M5.75 23.7731V22M5.75 23.7731V25.5204" stroke="white"/>
<path d="M39 36.7731H40.75M42.5 36.7731H40.75M40.75 36.7731V35M40.75 36.7731V38.5204" stroke="white"/>
<circle cx="36" cy="21" r="1" fill="#D9D9D9"/>
<circle cx="20" cy="12" r="1" fill="#D9D9D9"/>
<circle cx="8" cy="17" r="1" fill="#D9D9D9"/>
<defs>
<linearGradient id="paint0_linear_366_1025" x1="54" y1="35.5" x2="167.999" y2="34.426" gradientUnits="userSpaceOnUse">
<stop stop-color="#9AD5FF"/>
<stop offset="1" stop-color="#0061FF"/>
</linearGradient>
<linearGradient id="paint1_linear_366_1025" x1="24.0003" y1="52.0208" x2="24.0003" y2="14.7567" gradientUnits="userSpaceOnUse">
<stop stop-color="#0061FF"/>
<stop offset="0.898" stop-color="#9AD5FF"/>
</linearGradient>
<linearGradient id="paint2_linear_366_1025" x1="13.5" y1="48.5" x2="14" y2="46.5" gradientUnits="userSpaceOnUse">
<stop stop-color="#0061FF"/>
<stop offset="1" stop-color="white"/>
</linearGradient>
<linearGradient id="paint3_linear_366_1025" x1="14.0511" y1="52.0206" x2="14.0511" y2="14.7566" gradientUnits="userSpaceOnUse">
<stop stop-color="#0061FF"/>
<stop offset="0.898" stop-color="white"/>
</linearGradient>
</defs>
</svg>
