<svg width="56" height="56" viewBox="0 0 56 56" fill="none" xmlns="http://www.w3.org/2000/svg">
<path d="M51.5703 22.9128L49.3642 35.6473C49.2772 36.1493 49.0857 36.6275 48.802 37.0507C48.5183 37.4739 48.1489 37.8327 47.7176 38.104C47.2863 38.3752 46.8028 38.5527 46.2985 38.6251C45.7942 38.6974 45.2803 38.663 44.7902 38.5239L36.8244 36.2642L35.453 34.1248L34.2858 35.5434L32.5927 35.0633L32.375 27.1248L35.5808 17.8203L37.3362 17.9373L38.5 19.2498L39.97 18.1134L48.2311 18.6658C48.7394 18.6996 49.2349 18.8399 49.6855 19.0777C50.1361 19.3154 50.5316 19.6452 50.8465 20.0457C51.1614 20.4461 51.3886 20.9083 51.5132 21.4023C51.6379 21.8962 51.6574 22.4109 51.5703 22.9128Z" fill="#33548A"/>
<path d="M39.9704 18.1136L36.8247 36.2644L34.2861 35.5436L37.3366 17.9375L39.9704 18.1136Z" fill="#FCAE13"/>
<path d="M36.0512 15.1053L32.1207 37.7458C32.0863 37.9437 31.9748 38.1198 31.8106 38.2354C31.6464 38.351 31.443 38.3967 31.2451 38.3624C30.5286 38.238 29.8909 37.8341 29.4723 37.2395C29.0536 36.6449 28.8883 35.9084 29.0126 35.1919L32.2642 16.4623C32.3886 15.7458 32.7925 15.1081 33.387 14.6895C33.9816 14.2708 34.7181 14.1055 35.4346 14.2299C35.6325 14.2642 35.8086 14.3757 35.9242 14.5399C36.0398 14.7041 36.0855 14.9075 36.0512 15.1053Z" fill="#2C4B77"/>
<path d="M22.7495 38.5H15.3405C15.2534 38.5 15.1686 38.4719 15.0986 38.42C15.0286 38.3681 14.9772 38.295 14.952 38.2117C14.9267 38.1283 14.929 38.039 14.9584 37.957C14.9878 37.875 15.0428 37.8046 15.1153 37.7563L16.6245 36.75H22.7495C22.9816 36.75 23.2042 36.8422 23.3683 37.0063C23.5323 37.1704 23.6245 37.3929 23.6245 37.625C23.6245 37.8571 23.5323 38.0796 23.3683 38.2437C23.2042 38.4078 22.9816 38.5 22.7495 38.5Z" fill="#DDA297"/>
<path d="M7.4375 37.625C9.12887 37.625 10.5 36.2539 10.5 34.5625C10.5 32.8711 9.12887 31.5 7.4375 31.5C5.74613 31.5 4.375 32.8711 4.375 34.5625C4.375 36.2539 5.74613 37.625 7.4375 37.625Z" fill="#DDA297"/>
<path d="M16.4238 7.51853C15.9393 9.03791 15.8415 10.6541 16.1393 12.2208C16.437 13.7876 17.1208 15.2553 18.1289 16.491L19.0586 17.6304L20.7407 17.1479L20.9248 15.6892C21.1245 14.107 20.9264 12.5 20.3483 11.0137C19.7703 9.52736 18.8307 8.20872 17.6145 7.17717C17.5211 7.09776 17.4095 7.04266 17.2897 7.01677C17.1699 6.99089 17.0455 6.99502 16.9277 7.0288C16.8098 7.06259 16.7022 7.12497 16.6143 7.21042C16.5264 7.29586 16.4609 7.4017 16.4238 7.51853Z" fill="#DDA297"/>
<path d="M25.8267 8.1773C25.9096 9.76983 25.594 11.3579 24.9084 12.7977C24.2227 14.2374 23.1888 15.4835 21.9002 16.4229L20.7119 17.289L19.207 16.3953L19.3993 14.9376C19.6079 13.3565 20.2075 11.8524 21.144 10.5615C22.0804 9.27064 23.3241 8.23376 24.7624 7.54478C24.8729 7.49182 24.9947 7.46696 25.1171 7.47242C25.2395 7.47787 25.3586 7.51348 25.4639 7.57606C25.5692 7.63865 25.6575 7.72628 25.7208 7.83117C25.7841 7.93606 25.8205 8.05496 25.8267 8.1773Z" fill="#DDA297"/>
<path d="M44.625 44.8387C44.625 45.0659 44.5793 45.2908 44.4908 45.5C44.4022 45.7092 44.2725 45.8985 44.1093 46.0566C43.9462 46.2148 43.7529 46.3385 43.541 46.4205C43.3292 46.5025 43.103 46.5411 42.8759 46.534L16.625 45.7137V43.9637L42.8759 43.1434C43.103 43.1363 43.3292 43.1749 43.541 43.2569C43.7529 43.3389 43.9462 43.4627 44.1093 43.6208C44.2725 43.7789 44.4022 43.9682 44.4908 44.1774C44.5793 44.3866 44.625 44.6115 44.625 44.8387Z" fill="#177792"/>
<path d="M20.182 16.625H20.3662C22.4823 16.625 24.5412 17.3113 26.2341 18.581C26.511 18.7888 26.7358 19.0583 26.8905 19.3681C27.0453 19.6778 27.1257 20.0194 27.1256 20.3656C27.1256 20.8113 26.992 21.2468 26.7422 21.6159C26.4923 21.985 26.1376 22.2708 25.7237 22.4363L22.7506 23.625C22.7506 25.8907 21.9795 28.0889 20.5642 29.8581L19.7479 30.8784C19.6945 30.9453 19.6586 31.0245 19.6438 31.1088C19.6289 31.1931 19.6354 31.2798 19.6628 31.3609C19.6902 31.442 19.7375 31.5149 19.8004 31.5729C19.8634 31.631 19.9399 31.6723 20.0229 31.693L20.8897 31.9097C21.4212 32.0426 21.8931 32.3494 22.2303 32.7813C22.5675 33.2131 22.7506 33.7453 22.7506 34.2932C22.7506 34.9448 22.4917 35.5697 22.031 36.0304C21.5703 36.4911 20.9454 36.75 20.2938 36.75H13.5551C12.3861 36.75 11.2422 36.4103 10.2627 35.7721C9.28319 35.1339 8.51025 34.2249 8.03791 33.1555C7.48778 31.9098 7.36009 30.5184 7.67432 29.1934C7.98856 27.8683 8.72747 26.6824 9.7784 25.8164C10.8359 24.9451 12.0304 24.2548 13.3134 23.7736L18.0309 22.0046C18.068 21.9907 18.101 21.9676 18.127 21.9376C18.1529 21.9076 18.1709 21.8716 18.1793 21.8328C18.1877 21.7941 18.1862 21.7538 18.175 21.7158C18.1639 21.6777 18.1433 21.6431 18.1153 21.615C17.6815 21.1812 17.3952 20.6219 17.2969 20.0164C17.1987 19.4108 17.2934 18.7897 17.5678 18.241C17.8105 17.7555 18.1836 17.3471 18.6454 17.0617C19.1071 16.7762 19.6392 16.625 20.182 16.625Z" fill="#E9AB9C"/>
<path d="M24.5 28.875H20.8621C20.3739 28.875 19.8889 28.7963 19.4258 28.6419L17.5 28L18.375 24.5L19.6698 25.7948C20.5215 26.6465 21.6767 27.125 22.8812 27.125H24.5C24.7321 27.125 24.9546 27.2172 25.1187 27.3813C25.2828 27.5454 25.375 27.7679 25.375 28C25.375 28.2321 25.2828 28.4546 25.1187 28.6187C24.9546 28.7828 24.7321 28.875 24.5 28.875Z" fill="#E9AB9C"/>
<path d="M11.375 44.8397L13.9803 43.5539L14.398 40.6787L16.4259 42.7592L19.2895 42.268L17.9375 44.8397L19.2895 47.4112L16.4259 46.9201L14.398 49.0005L13.9803 46.1254L11.375 44.8397Z" fill="#D0393E"/>
<path d="M13.5551 37.1875H15.1803L14.9007 37.3735C14.7478 37.472 14.6296 37.6159 14.5627 37.7851C14.4958 37.9542 14.4836 38.1401 14.5278 38.3165C14.5758 38.4953 14.6817 38.6531 14.8288 38.7654C14.9759 38.8778 15.1561 38.9383 15.3412 38.9375H22.7118C23.0431 38.9415 23.3641 38.8224 23.6126 38.6033C23.8611 38.3842 24.0195 38.0806 24.0572 37.7515C24.0746 37.5693 24.0537 37.3855 23.996 37.2119C23.9382 37.0382 23.8448 36.8786 23.7218 36.7431C23.5988 36.6076 23.4488 36.4994 23.2815 36.4252C23.1142 36.3511 22.9332 36.3127 22.7502 36.3125H22.3657C22.7211 35.9482 22.974 35.4966 23.0991 35.0032C23.2241 34.5098 23.2168 33.9922 23.0778 33.5026C22.9389 33.013 22.6732 32.5687 22.3076 32.2146C21.9421 31.8604 21.4895 31.609 20.9958 31.4857L20.2761 31.3059C20.2483 31.299 20.2227 31.2852 20.2017 31.2658C20.1807 31.2464 20.1649 31.2221 20.1557 31.195C20.1465 31.1679 20.1443 31.1389 20.1493 31.1107C20.1543 31.0826 20.1662 31.0561 20.1841 31.0338C20.1841 31.0338 21.3148 29.592 21.4966 29.3125H24.4615C24.7928 29.3165 25.1138 29.1974 25.3623 28.9783C25.6108 28.7592 25.7692 28.4556 25.8068 28.1265C25.8242 27.9443 25.8034 27.7606 25.7457 27.587C25.6879 27.4133 25.5946 27.2537 25.4716 27.1182C25.3486 26.9828 25.1986 26.8745 25.0314 26.8003C24.8641 26.7262 24.6832 26.6877 24.5002 26.6875H22.8815C22.8303 26.6875 22.7794 26.6857 22.7284 26.6838C23.004 25.7883 23.157 24.8596 23.1833 23.923L25.8855 22.8422C26.3804 22.6442 26.8047 22.3024 27.1037 21.861C27.4026 21.4196 27.5625 20.8988 27.5627 20.3657C27.5629 19.9513 27.4665 19.5427 27.2812 19.1721C27.096 18.8015 26.8269 18.4792 26.4953 18.2308C25.3361 17.3649 24.0067 16.754 22.5946 16.4383C23.8157 15.4445 24.7846 14.176 25.4223 12.7365C26.0599 11.297 26.3483 9.72711 26.2639 8.15493C26.2546 7.96038 26.1971 7.77118 26.0968 7.60425C25.9964 7.43731 25.8563 7.29785 25.6888 7.19832C25.5214 7.0988 25.3319 7.04231 25.1374 7.03391C24.9428 7.02552 24.7491 7.06547 24.5737 7.15021C22.9826 7.90958 21.6215 9.07766 20.6295 10.5351C20.017 9.11009 19.082 7.84673 17.8981 6.84462C17.75 6.71832 17.5729 6.63062 17.3826 6.58934C17.1923 6.54806 16.9948 6.55448 16.8076 6.60802C16.6204 6.66156 16.4494 6.76056 16.3097 6.8962C16.1701 7.03185 16.0661 7.19993 16.0072 7.38547C15.4976 8.97374 15.3938 10.6643 15.7052 12.303C16.0166 13.9416 16.7333 15.4763 17.79 16.7669L17.9852 17.0063C17.6497 17.296 17.3746 17.6491 17.1758 18.0454C16.8838 18.6297 16.7684 19.2865 16.8436 19.9354C16.9189 20.5843 17.1815 21.1972 17.5996 21.6992L13.1599 23.3647C11.8321 23.8632 10.5957 24.5775 9.50044 25.4786C8.73838 26.1045 8.12486 26.8918 7.70421 27.7837C7.28355 28.6756 7.06627 29.6498 7.06805 30.636C7.06805 30.7829 7.07341 30.9313 7.08358 31.0804C6.49068 31.1406 5.92299 31.3513 5.4343 31.6924C4.94561 32.0335 4.55211 32.4937 4.29108 33.0294C4.03006 33.5652 3.91015 34.1587 3.94274 34.7538C3.97532 35.3488 4.1593 35.9257 4.47726 36.4298C4.79522 36.9338 5.23661 37.3483 5.75962 37.634C6.28263 37.9197 6.86993 38.0671 7.46586 38.0623C8.06179 38.0575 8.64663 37.9006 9.16494 37.6064C9.68325 37.3123 10.1179 36.8907 10.4276 36.3816C11.3849 36.9111 12.4611 37.1884 13.5551 37.1875ZM23.1877 37.625C23.1877 37.7411 23.1416 37.8523 23.0596 37.9344C22.9776 38.0164 22.8663 38.0625 22.7502 38.0625H15.4452L16.7577 37.1875H22.7502C22.8663 37.1875 22.9776 37.2336 23.0596 37.3157C23.1416 37.3977 23.1877 37.509 23.1877 37.625ZM24.9521 7.93913C24.9979 7.92252 25.0468 7.9163 25.0953 7.9209C25.1438 7.92551 25.1907 7.94083 25.2325 7.96576C25.2744 7.99069 25.3102 8.0246 25.3374 8.06505C25.3645 8.1055 25.3823 8.15148 25.3896 8.19966C25.4713 9.71985 25.1713 11.2363 24.5168 12.6108C23.8623 13.9854 22.8742 15.1742 21.6425 16.069L21.403 16.2433C21.3675 16.2397 21.3322 16.2358 21.2969 16.2324L21.3584 15.7435C21.5361 14.3443 21.4164 12.9234 21.0073 11.5736C21.9321 9.99715 23.3053 8.73189 24.9521 7.93913ZM16.8411 7.65049C16.8606 7.58805 16.8997 7.53357 16.9526 7.49519C17.0056 7.45681 17.0695 7.43659 17.1349 7.43754C17.207 7.43746 17.2767 7.46353 17.331 7.51093C18.4939 8.49355 19.3923 9.75169 19.9442 11.1706C20.4961 12.5895 20.684 14.124 20.4907 15.6341L20.4209 16.1886C19.6662 16.201 19.1758 16.3041 18.7208 16.5236L18.4682 16.2139C17.5036 15.0358 16.8494 13.635 16.5652 12.1392C16.281 10.6434 16.3759 9.10022 16.8411 7.65049ZM10.0562 26.1538C11.0769 25.3137 12.2294 24.648 13.467 24.1834L18.1839 22.4138C18.2896 22.3742 18.3836 22.3087 18.4574 22.2233C18.5312 22.138 18.5824 22.0355 18.6064 21.9252C18.6303 21.8149 18.6262 21.7004 18.5944 21.5921C18.5627 21.4839 18.5043 21.3853 18.4246 21.3054C18.0557 20.9366 17.8121 20.4611 17.7284 19.9462C17.6447 19.4313 17.7252 18.9032 17.9583 18.4365C18.1658 18.0245 18.4827 17.6776 18.8743 17.4339C19.3237 17.1651 19.8429 17.0358 20.3659 17.0625C22.3866 17.0664 24.3522 17.7217 25.9709 18.9312C26.2253 19.1223 26.4243 19.3776 26.5475 19.6709C26.6707 19.9643 26.7136 20.2851 26.6718 20.6005C26.6301 20.9159 26.5052 21.2146 26.3099 21.4658C26.1146 21.7169 25.856 21.9117 25.5606 22.0299L22.5878 23.2188C22.5066 23.2513 22.437 23.3073 22.388 23.3797C22.339 23.4522 22.3127 23.5376 22.3127 23.625C22.3126 24.6204 22.1562 25.6095 21.8492 26.5563C21.141 26.3733 20.495 26.0033 19.9789 25.4851L18.6842 24.1903C18.6436 24.1497 18.5954 24.1174 18.5423 24.0954C18.4892 24.0734 18.4323 24.0621 18.3749 24.0621C18.3174 24.0621 18.2605 24.0734 18.2074 24.0954C18.1544 24.1173 18.1061 24.1496 18.0655 24.1902C18.0249 24.2308 17.9926 24.279 17.9706 24.3321C17.9486 24.3852 17.9373 24.4421 17.9373 24.4995C17.9373 24.557 17.9486 24.6139 17.9706 24.667C17.9925 24.72 18.0248 24.7683 18.0654 24.8089L19.3602 26.1037C19.8215 26.5676 20.3702 26.9355 20.9747 27.1859C21.5791 27.4363 22.2272 27.5643 22.8815 27.5625H24.5002C24.6163 27.5625 24.7276 27.6086 24.8096 27.6907C24.8916 27.7727 24.9377 27.884 24.9377 28C24.9377 28.1161 24.8916 28.2273 24.8096 28.3094C24.7276 28.3914 24.6163 28.4375 24.5002 28.4375H20.8623C20.4212 28.4377 19.9829 28.3666 19.5645 28.2269L17.6386 27.585C17.5285 27.5483 17.4084 27.5568 17.3046 27.6087C17.2008 27.6606 17.1219 27.7516 17.0852 27.8617C17.0485 27.9718 17.057 28.0919 17.1089 28.1957C17.1608 28.2995 17.2518 28.3784 17.3619 28.4151L19.2878 29.057C19.6624 29.182 20.0507 29.2617 20.4443 29.2947C20.3719 29.3931 19.4069 30.6047 19.4069 30.6047C19.3074 30.7287 19.2406 30.8758 19.2129 31.0324C19.1851 31.1889 19.1971 31.35 19.2479 31.5007C19.2986 31.6514 19.3864 31.7869 19.5033 31.8948C19.6201 32.0027 19.7622 32.0794 19.9164 32.118L20.7837 32.3347C21.2616 32.4544 21.6793 32.7446 21.958 33.1509C22.2368 33.5571 22.3574 34.0512 22.2972 34.5402C22.237 35.0292 22 35.4793 21.631 35.8057C21.262 36.1322 20.7864 36.3124 20.2937 36.3125H13.5551C12.4709 36.3125 11.4101 35.9975 10.5015 35.4058C9.59303 34.8141 8.87597 33.9713 8.43754 32.9797C7.92623 31.821 7.80766 30.527 8.09989 29.2947C8.39212 28.0624 9.07903 26.9595 10.0562 26.1538ZM7.43774 37.1875C6.76239 37.1872 6.11314 36.9267 5.62497 36.46C5.1368 35.9933 4.84728 35.3564 4.81661 34.6818C4.78593 34.0071 5.01646 33.3466 5.46026 32.8375C5.90406 32.3285 6.52698 32.0101 7.19952 31.9485C7.2948 32.4244 7.44149 32.8887 7.63702 33.3329C8.08863 34.3534 8.79645 35.2398 9.69174 35.906C9.45932 36.2966 9.12936 36.6202 8.73421 36.8448C8.33906 37.0695 7.89229 37.1876 7.43774 37.1875Z" fill="black"/>
<path d="M21.875 20.125C22.3582 20.125 22.75 19.7332 22.75 19.25C22.75 18.7668 22.3582 18.375 21.875 18.375C21.3918 18.375 21 18.7668 21 19.25C21 19.7332 21.3918 20.125 21.875 20.125Z" fill="black"/>
<path d="M42.8628 42.7072L19.1636 43.4483L19.6776 42.4716C19.7155 42.3994 19.7324 42.318 19.7265 42.2366C19.7205 42.1553 19.692 42.0772 19.644 42.0113C19.5961 41.9453 19.5306 41.894 19.4551 41.8633C19.3795 41.8325 19.2969 41.8235 19.2165 41.8372L16.5797 42.2895L14.7114 40.3733C14.6544 40.3148 14.5822 40.2735 14.5029 40.2539C14.4237 40.2344 14.3406 40.2374 14.2629 40.2626C14.1853 40.2879 14.1163 40.3343 14.0637 40.3967C14.0111 40.4591 13.977 40.535 13.9652 40.6157L13.5805 43.2633L11.1814 44.4473C11.1082 44.4834 11.0465 44.5393 11.0034 44.6086C10.9603 44.6779 10.9375 44.7579 10.9375 44.8396C10.9375 44.9212 10.9603 45.0012 11.0034 45.0706C11.0465 45.1399 11.1082 45.1958 11.1814 45.2319L13.5805 46.4159L13.9652 49.0628C13.9746 49.1444 14.0079 49.2215 14.0608 49.2843C14.1138 49.3471 14.1841 49.393 14.2629 49.416C14.3408 49.4388 14.4233 49.4406 14.5021 49.4211C14.5808 49.4017 14.6531 49.3617 14.7114 49.3053L16.5788 47.3894L19.2156 47.8417C19.296 47.8554 19.3787 47.8464 19.4542 47.8157C19.5298 47.7849 19.5952 47.7337 19.6432 47.6677C19.6911 47.6017 19.7197 47.5236 19.7256 47.4423C19.7316 47.361 19.7146 47.2796 19.6768 47.2073L19.1636 46.2312C19.1636 46.2312 42.908 46.9734 42.9308 46.9734C43.2138 46.9734 43.4941 46.9171 43.7552 46.8077C44.0163 46.6984 44.253 46.5382 44.4516 46.3364C44.6502 46.1346 44.8066 45.8954 44.9118 45.6326C45.017 45.3698 45.0689 45.0887 45.0643 44.8056C45.0598 44.5226 44.999 44.2433 44.8855 43.9839C44.772 43.7246 44.608 43.4905 44.403 43.2952C44.1981 43.0999 43.9564 42.9473 43.6919 42.8463C43.4275 42.7454 43.1456 42.698 42.8626 42.7071L42.8628 42.7072ZM16.5003 46.4887C16.4304 46.4767 16.3586 46.4819 16.2911 46.5038C16.2237 46.5258 16.1626 46.5638 16.1131 46.6146L14.7039 48.0598L14.4136 46.0621C14.4034 45.9919 14.3763 45.9252 14.3346 45.8678C14.293 45.8104 14.2379 45.764 14.1743 45.7326L12.364 44.8391L14.1743 43.9457C14.2379 43.9143 14.293 43.8679 14.3346 43.8105C14.3763 43.7531 14.4034 43.6864 14.4136 43.6162L14.7039 41.6184L16.1131 43.0641C16.1626 43.1149 16.2237 43.1529 16.2911 43.1749C16.3586 43.1968 16.4304 43.2019 16.5003 43.1899L18.4902 42.8486L17.5506 44.6356C17.5176 44.6984 17.5004 44.7682 17.5004 44.8391C17.5004 44.9101 17.5176 44.9799 17.5506 45.0427L18.4902 46.8296L16.5003 46.4887ZM43.8051 45.7432C43.6845 45.8611 43.5412 45.9534 43.3839 46.0143C43.2266 46.0752 43.0586 46.1037 42.89 46.0978L18.6962 45.3412L18.4325 44.8396L18.696 44.3383L42.8908 43.5818C43.1446 43.574 43.3947 43.6432 43.6084 43.7802C43.8221 43.9172 43.9893 44.1156 44.0882 44.3494C44.1871 44.5832 44.213 44.8414 44.1624 45.0901C44.1119 45.3389 43.9874 45.5666 43.8051 45.7432Z" fill="black"/>
</svg>
